<mxfile host="app.diagrams.net" modified="2024-11-04T14:02:41.332Z" agent="Mozilla/5.0 (X11; Linux x86_64) AppleWebKit/537.36 (KHTML, like Gecko) Chrome/130.0.0.0 Safari/537.36" etag="DDtqWX-PX8LCqwIxioJU" version="21.2.8" type="device">
  <diagram id="NZXDvTiALVU4SaHnlNr_" name="Seite-1">
    <mxGraphModel dx="1434" dy="820" grid="1" gridSize="10" guides="1" tooltips="1" connect="1" arrows="1" fold="1" page="1" pageScale="1" pageWidth="827" pageHeight="1169" math="0" shadow="0">
      <root>
        <mxCell id="0" />
        <mxCell id="1" parent="0" />
        <mxCell id="7HEjf2OggylAVtO0UKab-5" style="edgeStyle=orthogonalEdgeStyle;rounded=0;orthogonalLoop=1;jettySize=auto;html=1;" parent="1" source="7HEjf2OggylAVtO0UKab-1" target="7HEjf2OggylAVtO0UKab-3" edge="1">
          <mxGeometry relative="1" as="geometry" />
        </mxCell>
        <mxCell id="7HEjf2OggylAVtO0UKab-1" value="Report HTML+VueJS Template" style="rounded=0;whiteSpace=wrap;html=1;" parent="1" vertex="1">
          <mxGeometry x="110" y="260" width="120" height="60" as="geometry" />
        </mxCell>
        <mxCell id="7HEjf2OggylAVtO0UKab-4" style="edgeStyle=orthogonalEdgeStyle;rounded=0;orthogonalLoop=1;jettySize=auto;html=1;" parent="1" source="7HEjf2OggylAVtO0UKab-2" target="7HEjf2OggylAVtO0UKab-3" edge="1">
          <mxGeometry relative="1" as="geometry" />
        </mxCell>
        <mxCell id="7HEjf2OggylAVtO0UKab-2" value="Project Data (report and findings data)" style="rounded=0;whiteSpace=wrap;html=1;" parent="1" vertex="1">
          <mxGeometry x="110" y="190" width="120" height="60" as="geometry" />
        </mxCell>
        <mxCell id="7HEjf2OggylAVtO0UKab-8" style="edgeStyle=orthogonalEdgeStyle;rounded=0;orthogonalLoop=1;jettySize=auto;html=1;entryX=0;entryY=0.5;entryDx=0;entryDy=0;startArrow=none;" parent="1" source="7HEjf2OggylAVtO0UKab-18" target="7HEjf2OggylAVtO0UKab-7" edge="1">
          <mxGeometry relative="1" as="geometry">
            <mxPoint x="443" y="250" as="sourcePoint" />
          </mxGeometry>
        </mxCell>
        <mxCell id="7HEjf2OggylAVtO0UKab-3" value="Headless Chromium" style="rhombus;whiteSpace=wrap;html=1;" parent="1" vertex="1">
          <mxGeometry x="290" y="210" width="80" height="80" as="geometry" />
        </mxCell>
        <mxCell id="7HEjf2OggylAVtO0UKab-6" value="Render VueJS template to HTML" style="text;html=1;strokeColor=none;fillColor=none;align=center;verticalAlign=middle;whiteSpace=wrap;rounded=0;" parent="1" vertex="1">
          <mxGeometry x="280" y="170" width="100" height="30" as="geometry" />
        </mxCell>
        <mxCell id="7HEjf2OggylAVtO0UKab-12" style="edgeStyle=orthogonalEdgeStyle;rounded=0;orthogonalLoop=1;jettySize=auto;html=1;" parent="1" source="7HEjf2OggylAVtO0UKab-7" target="7HEjf2OggylAVtO0UKab-9" edge="1">
          <mxGeometry relative="1" as="geometry" />
        </mxCell>
        <mxCell id="7HEjf2OggylAVtO0UKab-7" value="WeasyPrint" style="rhombus;whiteSpace=wrap;html=1;" parent="1" vertex="1">
          <mxGeometry x="470" y="210" width="80" height="80" as="geometry" />
        </mxCell>
        <mxCell id="7HEjf2OggylAVtO0UKab-9" value="" style="shape=image;html=1;verticalAlign=top;verticalLabelPosition=bottom;labelBackgroundColor=#ffffff;imageAspect=0;aspect=fixed;image=https://cdn1.iconfinder.com/data/icons/bootstrap-vol-3/16/filetype-pdf-128.png" parent="1" vertex="1">
          <mxGeometry x="630" y="226" width="48" height="48" as="geometry" />
        </mxCell>
        <mxCell id="7HEjf2OggylAVtO0UKab-11" style="edgeStyle=orthogonalEdgeStyle;rounded=0;orthogonalLoop=1;jettySize=auto;html=1;entryX=0.5;entryY=1;entryDx=0;entryDy=0;" parent="1" source="7HEjf2OggylAVtO0UKab-10" target="7HEjf2OggylAVtO0UKab-7" edge="1">
          <mxGeometry relative="1" as="geometry" />
        </mxCell>
        <mxCell id="gPJ7582glMsgfsu2TKrk-1" style="edgeStyle=orthogonalEdgeStyle;rounded=0;orthogonalLoop=1;jettySize=auto;html=1;entryX=0.5;entryY=1;entryDx=0;entryDy=0;" edge="1" parent="1" source="7HEjf2OggylAVtO0UKab-10" target="7HEjf2OggylAVtO0UKab-3">
          <mxGeometry relative="1" as="geometry" />
        </mxCell>
        <mxCell id="7HEjf2OggylAVtO0UKab-10" value="CSS Print Styles" style="rounded=0;whiteSpace=wrap;html=1;" parent="1" vertex="1">
          <mxGeometry x="110" y="330" width="120" height="60" as="geometry" />
        </mxCell>
        <mxCell id="7HEjf2OggylAVtO0UKab-14" value="Render HTML+CSS to PDF" style="text;html=1;strokeColor=none;fillColor=none;align=center;verticalAlign=middle;whiteSpace=wrap;rounded=0;labelBackgroundColor=default;fontColor=default;" parent="1" vertex="1">
          <mxGeometry x="455" y="170" width="110" height="30" as="geometry" />
        </mxCell>
        <mxCell id="7HEjf2OggylAVtO0UKab-15" value="" style="edgeStyle=orthogonalEdgeStyle;rounded=0;orthogonalLoop=1;jettySize=auto;html=1;endArrow=none;" parent="1" source="7HEjf2OggylAVtO0UKab-3" target="7HEjf2OggylAVtO0UKab-18" edge="1">
          <mxGeometry relative="1" as="geometry">
            <mxPoint x="370" y="250" as="sourcePoint" />
            <mxPoint x="400" y="250" as="targetPoint" />
          </mxGeometry>
        </mxCell>
        <mxCell id="7HEjf2OggylAVtO0UKab-18" value="" style="shape=image;html=1;verticalAlign=top;verticalLabelPosition=bottom;labelBackgroundColor=#ffffff;imageAspect=0;aspect=fixed;image=https://cdn1.iconfinder.com/data/icons/bootstrap-vol-3/16/filetype-html-128.png;fontColor=default;" parent="1" vertex="1">
          <mxGeometry x="400" y="227.5" width="45" height="45" as="geometry" />
        </mxCell>
      </root>
    </mxGraphModel>
  </diagram>
</mxfile>
